<?xml version="1.0" encoding="UTF-8" standalone="no"?>
<svg
   xmlns:dc="http://purl.org/dc/elements/1.1/"
   xmlns:cc="http://creativecommons.org/ns#"
   xmlns:rdf="http://www.w3.org/1999/02/22-rdf-syntax-ns#"
   xmlns:svg="http://www.w3.org/2000/svg"
   xmlns="http://www.w3.org/2000/svg"
   version="1.1"
   id="Layer_1"
   x="0px"
   y="0px"
   width="575"
   height="420"
   viewBox="0 0 575 420"
   enable-background="new 0 0 581 424"
   xml:space="preserve"><title
   id="title3340">Arrow</title><metadata
   id="metadata8"><rdf:RDF><cc:Work
       rdf:about=""><dc:format>image/svg+xml</dc:format><dc:type
         rdf:resource="http://purl.org/dc/dcmitype/StillImage" /><dc:title>Arrow</dc:title><dc:creator><cc:Agent><dc:title>NicholasJudy456</dc:title></cc:Agent></dc:creator><dc:publisher><cc:Agent><dc:title>Openclipart.org</dc:title></cc:Agent></dc:publisher><dc:identifier>https://openclipart.org/</dc:identifier><dc:source>https://openclipart.org/user-detail/NicholasJudy456</dc:source><dc:description>arrow pointing right</dc:description><dc:subject><rdf:Bag><rdf:li>arrow</rdf:li><rdf:li>point</rdf:li><rdf:li>roght</rdf:li></rdf:Bag></dc:subject><cc:license
         rdf:resource="http://creativecommons.org/publicdomain/zero/1.0/" /></cc:Work><cc:License
       rdf:about="http://creativecommons.org/publicdomain/zero/1.0/"><cc:permits
         rdf:resource="http://creativecommons.org/ns#Reproduction" /><cc:permits
         rdf:resource="http://creativecommons.org/ns#Distribution" /><cc:permits
         rdf:resource="http://creativecommons.org/ns#DerivativeWorks" /></cc:License></rdf:RDF></metadata><defs
   id="defs6" />  <path
   style="fill:#000000"
   d="m 244.09105,404.36567 c -4.66699,-0.90856 -5.49923,-1.48747 -8.19389,-5.69962 -5.82368,-8.24266 -3.64657,-19.69216 -4.06644,-29.42513 -0.58691,-13.60522 -1.06713,-25.48524 -1.06713,-26.40002 0,-1.5433 -6.28214,-1.60942 -87.10305,-0.91677 C 112.75545,337.83281 52.826839,348.3523 32.698895,329.53574 29.498462,325.8886 24.729313,319.42041 22.100785,315.16199 9.9312084,286.76703 17.117898,248.92588 17.009593,217.83251 16.651647,115.06905 16.203684,120.96325 25.526995,105.76252 37.018984,91.470187 45.085397,84.927435 54.247474,82.156915 c -2.574182,-1.012393 86.719726,0.377486 88.607456,0 l 88.60746,0 1.03478,-24.274972 c 0.56913,-13.351234 1.53963,-25.892537 2.15666,-27.86955 1.56173,-3.92002 10.14001,-13.762129 17.79667,-14.953273 4.60655,-0.716638 12.93485,5.318482 12.93485,5.318482 10.47762,4.308122 17.30941,8.171706 35.96228,20.337782 12.66507,8.260618 35.41716,22.164921 50.56019,30.898455 15.14303,8.733535 48.93326,28.340141 75.0894,43.570231 26.15614,15.23009 62.42431,35.48958 80.59595,45.02107 37.60255,19.7235 42.59772,23.42688 49.24982,36.51333 3.3677,6.62517 3.50102,7.27807 2.84507,13.93384 -0.56667,5.74976 -1.73687,9.07457 -6.62633,18.82686 -37.03863,36.80581 -94.1832,59.00252 -122.57993,76.97935 -66.19154,41.92476 -134.57793,83.46596 -150.70926,91.54806 -12.20376,6.11433 -13.15185,6.41607 -21.62511,6.88254 -4.87399,0.2683 -11.19935,0.0327 -14.05638,-0.52345 z"
   id="path3336"><title
     id="title3409">Arrow  --  by NicholasJudy456</title></path>
</svg>